<svg xmlns="http://www.w3.org/2000/svg" version="1.1" xmlns:xlink="http://www.w3.org/1999/xlink" xmlns:svgjs="http://svgjs.dev/svgjs" width="1000" height="1000" viewBox="0 0 1000 1000"><rect width="1000" height="1000" fill="#ffffff"></rect><g transform="matrix(0.7,0,0,0.7,149.57575757575756,376.8173408386955)"><svg viewBox="0 0 396 139" data-background-color="#97978d" preserveAspectRatio="xMidYMid meet" height="351" width="1000" xmlns="http://www.w3.org/2000/svg" xmlns:xlink="http://www.w3.org/1999/xlink"><g id="tight-bounds" transform="matrix(1,0,0,1,0.2400000000000091,0.18819545552022987)"><svg viewBox="0 0 395.52 138.62360908895954" height="138.62360908895954" width="395.52"><g><svg viewBox="0 0 395.52 138.62360908895954" height="138.62360908895954" width="395.52"><g><svg viewBox="0 0 395.52 138.62360908895954" height="138.62360908895954" width="395.52"><g id="textblocktransform"><svg viewBox="0 0 395.52 138.62360908895954" height="138.62360908895954" width="395.52" id="textblock"><g><rect width="395.52" height="103.70989041344842" fill="none" stroke-width="9.018103199999999" stroke="#000000" data-fill-palette-color="none" data-stroke-palette-color="tertiary"></rect><rect width="395.52" height="34.91371867551113" y="103.70989041344842" fill="#000000" data-fill-palette-color="tertiary"></rect></g><g><svg viewBox="0 0 395.52 103.70989041344842" height="103.70989041344842" width="395.52"><g transform="matrix(1,0,0,1,23.607599999999998,23.607599999999994)"><svg width="348.3048" viewBox="2.4 -35 220.09 35.7" height="56.49469041344843" data-palette-color="#ffffff"><path d="M2.4-34.3L36.05-34.3 36.05-24.6 33.45-24.6 33.45-31.9 20.65-31.9 20.65-2.4 28.05-2.4 28.05 0 10.5 0 10.5-2.4 17.85-2.4 17.85-31.9 5.05-31.9 5.05-24.6 2.4-24.6 2.4-34.3ZM57.5-31.9L50.35-31.9 50.35-2.4 57.5-2.4 57.5 0 40.45 0 40.45-2.4 47.55-2.4 47.55-31.9 40.45-31.9 40.45-34.3 57.5-34.3 57.5-31.9ZM105.3-34.3L105.3-31.9 98.25-31.9 98.25 0.35 97.15 0.35 71.2-30 71.2-2.4 77.8-2.4 77.8 0 61.35 0 61.35-2.4 68.45-2.4 68.45-31.9 61.35-31.9 61.35-34.3 71.2-34.3 71.2-34.25 95.55-5.5 95.55-31.9 88.45-31.9 88.45-34.3 105.3-34.3ZM124.49-34.3Q130.04-34.3 134.39-32.27 138.74-30.25 141.19-26.38 143.64-22.5 143.64-17.15L143.64-17.15Q143.64-11.8 141.19-7.93 138.74-4.05 134.39-2.02 130.04 0 124.49 0L124.49 0 107.99 0 107.99-2.4 115.09-2.4 115.09-31.9 107.99-31.9 107.99-34.3 124.49-34.3ZM124.34-2.4Q129.24-2.4 132.94-4.13 136.64-5.85 138.69-9.18 140.74-12.5 140.74-17.15L140.74-17.15Q140.74-21.85 138.69-25.15 136.64-28.45 132.94-30.18 129.24-31.9 124.34-31.9L124.34-31.9 117.89-31.9 117.89-2.4 124.34-2.4ZM167.29 0.65Q162.54 0.65 158.64-1.53 154.74-3.7 152.49-7.75 150.24-11.8 150.24-17.15L150.24-17.15Q150.24-22.55 152.49-26.6 154.74-30.65 158.64-32.83 162.54-35 167.29-35L167.29-35Q172.04-35 175.92-32.83 179.79-30.65 182.07-26.6 184.34-22.55 184.34-17.15L184.34-17.15Q184.34-11.8 182.07-7.75 179.79-3.7 175.89-1.53 171.99 0.65 167.29 0.65L167.29 0.65ZM167.29-1.8Q171.29-1.8 174.49-3.7 177.69-5.6 179.54-9.08 181.39-12.55 181.39-17.15L181.39-17.15Q181.39-21.75 179.54-25.25 177.69-28.75 174.49-30.65 171.29-32.55 167.29-32.55L167.29-32.55Q163.24-32.55 159.99-30.65 156.74-28.75 154.92-25.28 153.09-21.8 153.09-17.15L153.09-17.15Q153.09-12.55 154.92-9.08 156.74-5.6 159.99-3.7 163.24-1.8 167.29-1.8L167.29-1.8ZM207.69-32.6Q203.84-32.6 200.61-30.68 197.39-28.75 195.46-25.23 193.54-21.7 193.54-17.15L193.54-17.15Q193.54-12.6 195.44-9.1 197.34-5.6 200.64-3.68 203.94-1.75 207.99-1.75L207.99-1.75Q211.79-1.75 214.81-2.88 217.84-4 219.84-5.8L219.84-5.8 219.84-14.2 207.34-14.2 207.34-16.55 222.49-16.55 222.49-4.75Q219.99-2.35 216.24-0.83 212.49 0.7 207.99 0.7L207.99 0.7Q203.14 0.7 199.19-1.53 195.24-3.75 192.94-7.8 190.64-11.85 190.64-17.15L190.64-17.15Q190.64-22.4 192.94-26.45 195.24-30.5 199.06-32.75 202.89-35 207.29-35L207.29-35Q211.64-35 214.86-33.3 218.09-31.6 219.99-28.95L219.99-28.95 219.99-34.3 222.49-34.3 222.49-24.2 220.89-24.05Q218.84-28.05 215.64-30.33 212.44-32.6 207.69-32.6L207.69-32.6Z" opacity="1" transform="matrix(1,0,0,1,0,0)" fill="#000000" class="wordmark-text-0" data-fill-palette-color="primary" id="text-0"></path></svg></g></svg></g></svg></g></svg></g></svg></g><defs></defs></svg><rect width="395.52" height="138.62360908895954" fill="none" stroke="none" visibility="hidden"></rect></g></svg></g></svg>